<?xml version="1.0" encoding="utf-8"?>
<!-- Generator: Adobe Illustrator 25.4.1, SVG Export Plug-In . SVG Version: 6.00 Build 0)  -->
<svg version="1.1" id="Layer_1" xmlns="http://www.w3.org/2000/svg" xmlns:xlink="http://www.w3.org/1999/xlink" x="0px" y="0px"
	 viewBox="0 0 792 1224" style="enable-background:new 0 0 792 1224;" xml:space="preserve">
<style type="text/css">
	.st0{fill:#FFFFFF;}
	.st1{fill:#FFFFFF;}
</style>
<path class="st0" d="M256.7,311.3c2.3-0.2,30.1,7.2,42,10.6c17.8,5.1,35.5,10.4,53.5,14.6c5.7,1.3,11.4,2.4,17.1,3.1
	c5.5,0.6,10.8-0.4,16-2c7-2.2,13.9-4.7,21.2-6.2c13.3-2.8,26.3-2.1,38.7,3.4c17.6,7.8,28.5,21.5,33.3,40.1
	c2.8,10.7,3.3,21.6,2.6,32.6c-0.7,10.9-0.9,21.8,0.2,32.8c0.7,6.6,1,13.3,1.8,19.9c1.2,10.1,3.8,19.9,7.4,29.5
	c5.9,15.6,12.3,30.9,19.9,45.8c6.3,12.3,10.5,25.4,14,38.7c2.8,10.7,5.8,21.3,7.4,32.2c1,6.8,1.5,13.7,1.6,20.5
	c0.3,14.2-1.1,28.2-3.4,42.2c-0.8,4.9-1.6,9.7-3,14.5c-0.3,1-0.5,2.1-1.3,2.9c-0.9-0.4-0.4-14.3-1-20.6
	c-1.5-14.9-4.9-29.2-11.5-42.7c-12.7-26.1-30.6-48.1-53.1-66.5c-8.5-6.9-17.2-13.6-25.2-21.1c-19.6-18.5-34.4-40-42-66.1
	c-2.8-9.7-4.5-19.6-6.2-29.5c-1.6-9.6-2.5-19.2-3.6-28.8c-0.9-8.3-4.2-15.9-8.6-22.9c-4.4-7-9.9-13.1-15.3-19.4
	c-6.9-8.1-15.7-13.4-24.7-18.6c-14.8-8.6-30.3-16.1-45.8-23.4C278.9,322.3,257.5,312.3,256.7,311.3z M424.3,356.5
	c-8.6,0-15.5,6.8-15.5,15.5c0,8.7,7,15.8,15.6,15.8c8.4,0,15.6-7.2,15.6-15.6C440.1,363.5,433.1,356.5,424.3,356.5z"/>
<path class="st0" d="M371.6,461.8c-2.4-1.4-4.3-3.3-6.3-5.1c-10.4-9.4-22.6-16-35.5-21.1c-14.7-5.8-30-9.9-45.4-13.3
	c-18.1-4-36.3-7.7-54.5-11.7c-16.8-3.7-33.5-8.1-49.6-14.4c-14-5.5-27.1-12.4-38.8-22c-15.2-12.6-25.5-28.4-31.2-47.3
	c-2.5-8.3-3.9-16.8-4.7-25.4c-0.1-0.6,0-1.2-0.1-1.7c-0.1-1.1,0.4-1.6,1.5-1.5c2.9,0.1,5.8,0.5,8.6,1c13.4,2.5,26.3,6.5,39.1,11.1
	c30.6,10.9,60.1,24.5,88.8,39.6c22,11.6,43.4,24.4,64.1,38.3c20.1,13.5,39.4,28.2,57.5,44.3c1.4,1.3,2.2,2.6,2.5,4.6
	c1,7.1,2.2,14.1,3.6,21.2C371.5,459.6,371.9,460.7,371.6,461.8L371.6,461.8z"/>
<path class="st0" d="M500.9,453.3c-0.8-7-1.1-13.8-1.6-20.7c-0.1-1.3,0.7-1.9,1.5-2.6c6.4-5.7,12.9-11.1,19.6-16.4
	c33.5-26.3,69.6-48.6,107.4-68c27.7-14.3,56-26.9,85.5-37c11.2-3.8,22.5-7.2,34.1-9.3c2.7-0.5,5.3-0.9,8.1-1
	c1.4-0.1,1.9,0.4,1.8,1.8c-0.2,3.6-0.7,7.1-1.2,10.7c-1.9,12.5-5.6,24.5-11.7,35.7c-8.8,16.2-21.7,28.4-37.3,37.8
	c-14,8.4-29.1,14.1-44.6,18.8c-17.7,5.3-35.8,9.1-53.9,12.8c-18.5,3.8-37,7.5-55.1,12.8c-13,3.8-25.8,8.4-37.7,15.1
	c-4.4,2.5-8.6,5.3-12.6,8.3C502.5,452.6,502.1,453.2,500.9,453.3z"/>
<path class="st1" d="M294.7,698.9c0-1.1,0.2-2,0.5-3c1.8-6.7,5.6-12.3,10.2-17.4c7.3-8.1,16.1-14.5,25.3-20.3
	c16.7-10.5,34.4-19.1,52.3-27.2c24.8-11.2,50-21.6,74.9-32.5c3.7-1.6,7.4-3.4,11.1-5c0.7-0.3,1.4-1,2.1-0.4c0.9,0.8,1.8,1.8,2.4,2.8
	c0.4,0.7-0.5,1.1-1,1.5c-4.5,4-9,7.9-13.6,11.9c-22.2,19.1-44.5,38-66.1,57.8c-14.3,13.1-28.3,26.5-41.2,41
	c-7,7.9-13.8,16-18.9,25.3c-0.6,1.1-1.2,1.5-2.5,1.1c-8.5-2.4-16.5-5.8-23.2-11.6c-6.8-6-10.7-13.6-12.3-22.5
	C294.8,700,294.7,699.4,294.7,698.9z"/>
<path class="st1" d="M479.3,603.4c0.4,0.3,0.5,0.4,0.6,0.4c1.5,2.1,3.8,4,4.3,6.5c0.5,2.4-1.1,4.8-1.8,7.2
	c-7,22.4-16.5,43.6-27.5,64.3c-10.6,19.9-22.8,39-34.8,58.1c-4.5,7.2-9.1,14.4-12.8,22.1c-1.1,2.3-2.2,4.6-2.5,7.1
	c-0.2,1.9-1.3,2.4-2.8,2.7c-4.4,0.9-8.9,1-13.3,0.5c-9-0.9-17.7-3.2-25.9-7.1c-2.7-1.3-5.3-2.8-7.6-4.8c-1.6-1.5-2.3-3.1-1.6-5.4
	c1.7-6,4.5-11.5,7.8-16.8c5.5-8.5,12-16.1,18.9-23.6c13.3-14.5,27.5-28.2,41.2-42.3c18.7-19.3,36.6-39.3,52.3-61.1
	C475.6,608.7,477.4,606.1,479.3,603.4z"/>
<path class="st1" d="M287,661.4c-5.7-7.6-10.7-15.2-12.7-24.3c-2-9.4,0.2-17.6,6.9-24.6c4.8-5.1,10.7-8.6,16.9-11.7
	c11.7-5.7,24.2-9.2,36.9-12.1c18.4-4.2,37.1-7,55.8-9.5c15.5-2.1,31.1-3.7,46.7-5.6c3.4-0.4,6.7-0.7,10.1-1.2c1.5-0.2,2.8,0,4,1.2
	c2.6,2.4,5.3,4.8,8.2,7.4c-1.8,1.2-3.2,2.2-4.6,3c-8.5,5.1-17.6,9-26.7,12.7c-20.4,8.4-41.3,15.6-61.9,23.3
	c-16.2,6.1-32.4,12.3-48,19.8c-7.4,3.6-14.7,7.5-21.4,12.3C293.4,654.8,290.2,657.8,287,661.4z"/>
<path class="st1" d="M153.5,421.4c4.4,0.8,8.3,1.5,12.2,2.2c16.7,3.1,33.6,5.8,50.4,8.6c12.6,2,25.2,4.1,37.8,6.1
	c14.1,2.2,28.3,4.6,42.4,7.2c20,3.7,39.9,7.7,59.3,13.9c5.3,1.7,10.4,4.2,15.9,5.6c1.9,0.5,1.8,1.9,1.9,3.6c-3.8-0.5-7.4-1.4-11-1.8
	c-6.8-0.8-13.7-1.2-20.6-1.4c-13-0.4-26-0.3-38.9,0.6c-12.8,0.8-25.5,2-38.2,3.2c-11,1-22,2-33,2.3c-10.8,0.3-21.5-0.2-32-2.7
	c-15.9-3.7-28.1-12.6-36.6-26.5C159,435.9,155.9,429.1,153.5,421.4z"/>
<path class="st1" d="M708.9,421.7c0.3,0.4,0.2,0.8,0,1.2c-3.3,9.4-7.5,18.3-13.7,26.1c-8.8,11.1-20.5,17.6-34.2,20.3
	c-10.7,2.1-21.5,2.6-32.4,2c-7-0.4-13.9-0.7-20.9-1.4c-10.2-0.9-20.4-1.9-30.7-2.7c-5.7-0.5-11.4-0.9-17.1-1.2
	c-12.8-0.8-25.6-0.9-38.4-0.6c-5.5,0.2-11,0.7-16.5,1c-0.8,0-1.9,0.5-2.3-0.6c-0.5-1.3-0.9-2.8-0.6-4.2c0.1-0.7,1.2-0.8,2-1.1
	c6.2-2.2,12.5-4,18.9-5.7c17.7-4.5,35.7-8.1,53.7-11.2c17-2.9,34-5.7,51-8.5c14.8-2.4,29.6-4.7,44.4-7.2c11.4-1.9,22.7-4,34-6.1
	C707.1,421.8,708,421.5,708.9,421.7z"/>
<path class="st1" d="M494.1,626.5c3.3,6,6,12.2,8,18.7c3.2,10.6,4.7,21.4,4.8,32.4c0.2,12.5-2.3,24.6-5.9,36.6
	c-3.8,12.9-9.4,25-17.8,35.6c-8.3,10.5-18.5,18.4-31.6,22.2c-6.4,1.9-12.9,2.3-19.6,1.6c-2.1-0.2-2.3-0.4-2.3-2.5
	c-0.1-3.1,0.7-6.1,1.5-9.1c2-6.7,4.7-13.1,7.7-19.4c7.9-16.8,16.9-33.1,25.5-49.6c8.6-16.6,17.1-33.2,23.8-50.7
	c1.8-4.7,3.4-9.5,4.8-14.3C493.2,627.4,493.2,626.9,494.1,626.5z"/>
<path class="st1" d="M378,484.2c-1.5,0.4-2.9,0.1-4.4,0c-5-0.4-10-0.7-15-1c-7.2-0.4-14,1.6-20.6,4.1c-9.7,3.6-19,8.2-28.5,12.5
	c-10.5,4.8-21,9.5-32,12.9c-7.3,2.2-14.6,3.8-22.2,3.8c-15,0.2-26.5-6.1-34.9-18.4c-1.4-2-2.6-4.1-3.8-6.3c0.9-0.7,1.8-0.7,2.7-0.8
	c11.8-1.2,23.4-3,35.1-5.1c15.5-2.7,31-6,46.6-8.2c16.5-2.4,33.1-3.6,49.8-2.9c7.5,0.3,15.1,0.8,22.6,1.1c1.6,0.1,2.5,0.6,2.8,2.2
	C376.7,480.1,377.8,482,378,484.2z"/>
<path class="st1" d="M505.1,475.3c9.4-0.9,18.3-0.8,27.2-0.5c7.7,0.3,15.5,1,23.1,2c9.3,1.2,18.6,2.7,27.8,4.4
	c16.1,3,32.1,6.1,48.3,8.3c3.9,0.5,7.9,0.9,11.8,1.4c0.9,0.1,1.7,0.1,2.5,0.5c0.3,0.4,0.2,0.8,0,1.1c-2.9,5.3-6.3,10.2-10.9,14.2
	c-7,6.2-15.3,9.3-24.7,9.6c-10.6,0.4-20.7-2.2-30.7-5.7c-13.7-4.8-26.7-11.3-40-17.3c-7.9-3.6-15.9-7.1-24.4-9.2
	c-1.9-0.4-3.8-1-5.7-1c-1.3,0-2-0.5-2.3-1.7C506.6,479.6,505.9,477.6,505.1,475.3z"/>
<path class="st1" d="M282.9,532.4c3.4-1,6.9-2,10.2-3.4c5.7-2.4,11-5.6,16.1-9.2c7.8-5.4,15.6-10.8,24.4-14.6
	c8.2-3.6,16.7-6,25.5-7.9c6.7-1.5,13.4-3,20.1-4.6c2.4-0.6,2.4-0.5,3.5,1.7c1,2.2,2,4.4,3.1,6.5c0.6,1.2,0.3,1.7-1,2
	c-4.4,1-8.8,2.4-13,4c-12.5,4.8-23.7,11.8-34.3,19.9c-8.1,6.3-16.9,10.8-27,12.9c-5.7,1.2-11.5,1.5-17.3,0.4
	c-2.2-0.4-4.3-1.3-6.2-2.5C284.8,536.4,283.7,535,282.9,532.4z"/>
<path class="st1" d="M515,500.1c4.8,1.2,9.2,2.9,13.5,4.8c8.3,3.5,15.8,8.3,23,13.5c5.8,4.1,11.7,8,18.3,10.7c2.7,1.1,5.4,2,8.2,2.8
	c2.1,0.6,2.3,1.2,1,3c-1.2,1.7-2.8,2.9-4.7,3.8c-3,1.4-6.3,2.1-9.6,2.2c-12.6,0.5-22.7-6.7-33.5-13c-0.9-0.5-4.4-3-4.9-4
	c-4.4-9-7.5-12.4-11.2-21.8C515.1,501.6,514.7,501.1,515,500.1z"/>
<path class="st0" d="M371.5,461.9c0.1,0,0.2,0,0.2,0C371.8,462.1,371.7,462,371.5,461.9C371.6,461.8,371.5,461.9,371.5,461.9z"/>
</svg>
